<svg xmlns="http://www.w3.org/2000/svg" viewBox="0 0 960 640" width="960" height="640">
<style>
  text { font-family: -apple-system, BlinkMacSystemFont, "Segoe UI", "Helvetica Neue", Arial, sans-serif; }
  .title { font-size: 20px; font-weight: 700; fill: #1a1a1a; }
  .node-label { font-size: 16px; font-weight: 600; fill: #1a1a1a; }
  .node-detail { font-size: 13px; fill: #5a5a5a; }
  .node-sub { font-size: 12px; fill: #6a6a6a; }
  .layer-label { font-size: 14px; font-weight: 600; fill: #6a6a6a; }
  .arrow-label { font-size: 13px; fill: #5a5a5a; }
  .legend-text { font-size: 12px; fill: #5a5a5a; }
  .legend-title { font-size: 13px; font-weight: 600; fill: #1a1a1a; }
</style>
<defs>
  <marker id="arrow" markerWidth="8" markerHeight="8" refX="7" refY="4" orient="auto">
    <polygon points="0 0, 8 4, 0 8" fill="#5a5a5a"/>
  </marker>
  <marker id="arrow-green" markerWidth="8" markerHeight="8" refX="7" refY="4" orient="auto">
    <polygon points="0 0, 8 4, 0 8" fill="#4a8c6f"/>
  </marker>
  <marker id="arrow-gold" markerWidth="8" markerHeight="8" refX="7" refY="4" orient="auto">
    <polygon points="0 0, 8 4, 0 8" fill="#b8952e"/>
  </marker>
  <filter id="shadow">
    <feDropShadow dx="0" dy="2" stdDeviation="6" flood-color="#00000010"/>
  </filter>
</defs>
<rect width="960" height="640" fill="#f8f6f3"/>
  <text x="480" y="38" text-anchor="middle" class="title">PiArgus — Tiered Browser Architecture</text>
  <text x="480" y="58" text-anchor="middle" class="node-sub">Argus Panoptes, the hundred-eyed giant — sees all, routes wisely</text>
  <text x="30" y="158" class="layer-label">Input</text>
  <text x="30" y="310" class="layer-label">Routing</text>
  <text x="30" y="468" class="layer-label">Execution</text>
  <rect x="330" y="98" width="300" height="64" rx="12" fill="#a8c5e6" stroke="#4a4a4a" stroke-width="2.5" filter="url(#shadow)"/>
  <text x="480" y="128" text-anchor="middle" class="node-label">Pi Coding Agent</text>
  <text x="480" y="148" text-anchor="middle" class="node-detail">Invokes tools via Extension API</text>
  <rect x="300" y="211" width="360" height="68" rx="12" fill="#9dd4c7" stroke="#4a4a4a" stroke-width="2.5" filter="url(#shadow)"/>
  <text x="480" y="237" text-anchor="middle" class="node-label">PiArgus Extension</text>
  <text x="480" y="259" text-anchor="middle" class="node-detail">Registers 6 tools · CDP interactions · Auto-cleanup VM on shutdown</text>
  <polygon points="480,330 590,390 480,450 370,390"
           fill="#f4e4c1" stroke="#4a4a4a" stroke-width="2.5" filter="url(#shadow)"/>
  <text x="480" y="388" text-anchor="middle" class="node-label">Tier Router</text>
  <text x="480" y="408" text-anchor="middle" class="node-sub" fill="#5a5a5a">classifyTier()</text>
  <rect x="105" y="485" width="250" height="90" rx="12" fill="#a8c5e6" stroke="#4a4a4a" stroke-width="2.5" filter="url(#shadow)"/>
  <rect x="105" y="485" width="250" height="22" rx="12" fill="#93b5d9"/>
  <rect x="105" y="496" width="250" height="11" fill="#93b5d9"/>
  <circle cx="224" cy="496" r="2.5" fill="#4a4a4a" opacity="0.5"/>
  <circle cx="230" cy="496" r="2.5" fill="#4a4a4a" opacity="0.5"/>
  <circle cx="236" cy="496" r="2.5" fill="#4a4a4a" opacity="0.5"/>
  <text x="230" y="518" text-anchor="middle" class="node-label">Obscura</text>
  <text x="230" y="540" text-anchor="middle" class="node-detail">V8 · 30MB · Stateless</text>
  <text x="230" y="560" text-anchor="middle" class="node-sub">LIGHT TIER</text>
  <rect x="605" y="485" width="250" height="90" rx="12" fill="#f4e4c1" stroke="#4a4a4a" stroke-width="2.5" filter="url(#shadow)"/>
  <rect x="605" y="485" width="250" height="22" rx="12" fill="#ebd19b"/>
  <rect x="605" y="496" width="250" height="11" fill="#ebd19b"/>
  <circle cx="724" cy="496" r="2.5" fill="#4a4a4a" opacity="0.5"/>
  <circle cx="730" cy="496" r="2.5" fill="#4a4a4a" opacity="0.5"/>
  <circle cx="736" cy="496" r="2.5" fill="#4a4a4a" opacity="0.5"/>
  <text x="730" y="518" text-anchor="middle" class="node-label">smolvm + Puppeteer</text>
  <text x="730" y="540" text-anchor="middle" class="node-detail">Node.js · CDP · Chromium</text>
  <text x="730" y="560" text-anchor="middle" class="node-sub">HEAVY TIER</text>
  <line x1="480" y1="162" x2="480" y2="211" stroke="#5a5a5a" stroke-width="2" marker-end="url(#arrow)"/>
  <line x1="480" y1="279" x2="480" y2="330" stroke="#5a5a5a" stroke-width="2" marker-end="url(#arrow)"/>
  <line x1="370" y1="390" x2="230" y2="485" stroke="#4a8c6f" stroke-width="2" marker-end="url(#arrow-green)"/>
  <line x1="590" y1="390" x2="730" y2="485" stroke="#b8952e" stroke-width="2" marker-end="url(#arrow-gold)"/>
  <rect x="140" y="418" width="118" height="18" rx="4" fill="#f8f6f3" opacity="0.95"/>
  <text x="199" y="432" text-anchor="middle" class="arrow-label" fill="#4a8c6f">fetch · eval · scrape</text>
  <rect x="610" y="418" width="165" height="18" rx="4" fill="#f8f6f3" opacity="0.95"/>
  <text x="692" y="432" text-anchor="middle" class="arrow-label" fill="#b8952e">screenshot · click · fill</text>
  <text x="498" y="190" class="arrow-label">tool call</text>
  <text x="498" y="340" class="arrow-label">request + params</text>
  <rect x="720" y="540" width="210" height="82" rx="8" fill="#ffffff" stroke="#4a4a4a" stroke-width="1.5"/>
  <text x="825" y="558" text-anchor="middle" class="legend-title">Legend</text>
  <line x1="734" y1="574" x2="762" y2="574" stroke="#4a8c6f" stroke-width="2"/>
  <polygon points="762,570 768,574 762,578" fill="#4a8c6f"/>
  <text x="776" y="579" class="legend-text">Light tier (Obscura)</text>
  <line x1="734" y1="592" x2="762" y2="592" stroke="#b8952e" stroke-width="2"/>
  <polygon points="762,588 768,592 762,596" fill="#b8952e"/>
  <text x="776" y="597" class="legend-text">Heavy tier (CDP)</text>
  <line x1="734" y1="610" x2="762" y2="610" stroke="#5a5a5a" stroke-width="2"/>
  <polygon points="762,606 768,610 762,614" fill="#5a5a5a"/>
  <text x="776" y="615" class="legend-text">Control flow</text>
</svg>
